<?xml version="1.0" encoding="utf-8"?>
<!-- Generator: Adobe Illustrator 22.1.0, SVG Export Plug-In . SVG Version: 6.00 Build 0)  -->
<svg version="1.1" id="Layer_1" xmlns="http://www.w3.org/2000/svg" xmlns:xlink="http://www.w3.org/1999/xlink" x="0px" y="0px"
	 viewBox="0 0 256 256" style="enable-background:new 0 0 256 256;" xml:space="preserve">
<style type="text/css">
	.st0{fill:#F2C217;}
	.st1{fill:#009093;}
	.st2{fill:#007575;}
	.st3{fill:#FFFFFF;}
	.st4{fill:#E2AD17;}
	.st5{fill:#16C1C1;}
	.st6{fill:#16B5B1;}
</style>
<g>
	<path class="st0" d="M193.2,95.7v32.7c-2.7-1.2-5.6-1.8-8.7-1.8c-6.3,0-12.2,2.7-16.3,7.4c-0.7,0.8-1.4,1.7-1.9,2.6
		c-2.2,3.5-3.4,7.5-3.4,11.6c0,0.8,0,1.5,0.1,2.3h-17c-4.4,0-8.6,1.9-11.6,5.2c-2.4,2.6-3.8,6-4,9.5c0,0.3,0,0.6,0,0.9v26.3
		c0,2.5,1.3,4.7,3.4,6c1.1,0.7,2.4,1,3.7,1c1.1,0,2.2-0.2,3.2-0.8c2.1-1.1,4.4-1.7,6.2-1.7c2.4,0,4.5,1.1,5.9,2.9
		c1,1.3,1.6,2.9,1.6,4.7c0,0.8-0.1,1.6-0.4,2.4H1L0.5,95.8c0-3,1.5-5.9,4-7.4l21-13.2l30.4-19.1l20.9-13.2l20-12.6l31,19.5
		l40.3,25.4l21,13.2c0.2,0.1,0.4,0.3,0.6,0.5c0.2,0.2,0.5,0.4,0.7,0.6c0.2,0.2,0.4,0.4,0.6,0.7c0.6,0.7,1.1,1.5,1.5,2.4
		c0.1,0.3,0.2,0.7,0.3,1c0.1,0.3,0.1,0.6,0.2,0.9C193.2,94.9,193.2,95.3,193.2,95.7z"/>
	<path class="st1" d="M168.2,38.3v92.4c-0.7,0.8-42.8,21.1-43,24.6c0,0.3-3.8,11.9-3.8,12.2c0,0-4.9,30.8-3.5,32.6H37.9
		c-3.6,0-6.9-1.6-9.1-4.1c-2-2.3-3.3-5.3-3.3-8.6V17c0-7,5.6-12.7,12.4-12.7h96.9l12.5,12.8L168.2,38.3z"/>
	<path class="st2" d="M122.3,200H38.2l15.8-26.5l18.4-30.8l8.4-14l8.4-14l8.4-14l9.3-15.6l8.4-14l12.6-21.1l19.6-32.7l20.8,21.2v94
		c-0.7,0.8-26.8,6.6-26.8,6.6c-4.4,0-11.5,8.7-14.5,12c-2.4,2.6-4.1,9.5-4.2,13c0,0.3-4.4,6.9-4.4,7.2l4.1,23.6L122.3,200z"/>
	<g>
		<g>
			<g>
				<path class="st3" d="M99.1,57H59.3c-3.9,0-7-3.1-7-7v0c0-3.9,3.1-7,7-7h39.9c3.9,0,7,3.1,7,7v0C106.1,53.8,103,57,99.1,57z"/>
			</g>
			<g>
				<path class="st3" d="M134.5,85H59.3c-3.9,0-7-3.1-7-7v0c0-3.9,3.1-7,7-7h75.2c3.9,0,7,3.1,7,7v0C141.5,81.9,138.3,85,134.5,85z"
					/>
			</g>
		</g>
		<g>
			<g>
				<path class="st3" d="M99.1,114.6H59.3c-3.9,0-7-3.1-7-7v0c0-3.9,3.1-7,7-7h39.9c3.9,0,7,3.1,7,7v0
					C106.1,111.5,103,114.6,99.1,114.6z"/>
			</g>
			<g>
				<path class="st3" d="M134.5,142.7H59.3c-3.9,0-7-3.1-7-7v0c0-3.9,3.1-7,7-7h75.2c3.9,0,7,3.1,7,7v0
					C141.5,139.5,138.3,142.7,134.5,142.7z"/>
			</g>
		</g>
	</g>
	<path class="st4" d="M193.2,95.7v32.7c-2.7-1.2-5.6-1.8-8.7-1.8c-6.3,0-12.2,2.7-16.3,7.4c-0.7,0.8-1.4,1.7-1.9,2.6
		c-2.2,3.5-3.4,7.5-3.4,11.6c0,0.8,0,1.5,0.1,2.3h-17c-4.4,0-8.6,1.9-11.6,5.2c-2.4,2.6-3.8,6-4,9.5c0,0.3,0,0.6,0,0.9v26.3
		c0,2.5,1.3,4.7,3.4,6c1.1,0.7,2.4,1,3.7,1c1.1,0,2.2-0.2,3.2-0.8c2.1-1.1,4.4-1.7,6.2-1.7c2.4,0,4.5,1.1,5.9,2.9
		c1,1.3,1.6,2.9,1.6,4.7c0,0.8-0.1,1.6-0.4,2.4c-1,3-3.8,5.2-7.2,5.2c-1.8,0-4.1-0.6-6.2-1.7c-1-0.5-2.1-0.8-3.2-0.8
		c-1.3,0-2.6,0.4-3.7,1.1c-2.1,1.3-3.4,3.5-3.4,6v3c-1.9-0.7-3.6-1.7-5.1-3l-11.3-9.7l-8.3-7.1l-11.8-10.1c-8.6-7.3-8.6-20.7,0-28.1
		l16.7-14.2l5.8-4.9l16.5-14l35.3-30l11.2-9.5c3.3-2.7,7.5-2.5,10.4-0.3c0.2,0.2,0.5,0.4,0.7,0.6c0.2,0.2,0.4,0.4,0.6,0.7
		c0.6,0.7,1.1,1.5,1.5,2.4c0.1,0.3,0.2,0.7,0.3,1c0.1,0.3,0.1,0.6,0.2,0.9C193.2,94.9,193.2,95.3,193.2,95.7z"/>
	<g>
		<path class="st4" d="M99.9,189.9l-31.5,26.8c-3.2,2.7-7.3,4.2-11.5,4.2H18.4c-6.2,0-11.6-3.2-14.8-8.1l-0.3-0.5
			c-1.7-2.8-2.7-6.1-2.7-9.7v-107c0-7.3,8.3-11.2,13.8-6.6l68.9,58.5l16.7,14.2C108.5,169.1,108.5,182.6,99.9,189.9z"/>
	</g>
	<path class="st0" d="M154.4,204.6c0,0.8-0.1,1.6-0.4,2.4c-1,3-3.8,5.2-7.2,5.2c-1.8,0-4.1-0.6-6.2-1.7c-1-0.5-2.1-0.8-3.2-0.8
		c-1.3,0-2.6,0.4-3.7,1.1c-2.1,1.3-3.4,3.5-3.4,6v4.2H18.6c-6.2,0-9.1-7.9-4.4-12.1l2.1-1.8l12.6-11.2l25.3-22.4l31.1-27.6
		c1.5-1.4,3.3-2.4,5.1-3.2c4.2-1.7,8.9-1.7,13.2,0c1.8,0.7,3.6,1.8,5.1,3.2l2,1.8l19.9,17.6c0,0.3,0,0.6,0,0.9v26.3
		c0,2.5,1.3,4.7,3.4,6c1.1,0.7,2.4,1,3.7,1c1.1,0,2.2-0.2,3.2-0.8c2.1-1.1,4.4-1.7,6.2-1.7c2.4,0,4.5,1.1,5.9,2.9
		C153.8,201.3,154.4,202.9,154.4,204.6z"/>
	<g>
		<polygon class="st5" points="134.9,38.2 168.1,38.2 134.9,4.3 		"/>
	</g>
	<path class="st6" d="M240.9,190.1c-3,0-6.3,0.9-9.4,2.4v-26.3c0-2.2-0.9-4.3-2.3-5.8c-1.6-1.7-3.8-2.7-6.3-2.7h-26.3
		c1.5-3,2.4-6.4,2.4-9.4c0-8-6.5-14.6-14.6-14.6c-5.2,0-9.7,2.7-12.3,6.8c-1.4,2.3-2.3,4.9-2.3,7.8c0,2.9,0.8,6.1,2.3,9.1v0.3h-16.9
		H146c-2.5,0-4.8,1.1-6.4,2.8c-1.4,1.5-2.2,3.5-2.2,5.7v19.4v6.9c3-1.5,6.4-2.4,9.4-2.4c8.1,0,14.6,6.5,14.6,14.6
		c0,8.1-6.5,14.6-14.6,14.6c-3,0-6.3-0.9-9.4-2.4v26.3c0,2.9,1.4,5.4,3.5,6.9c1.4,1,3.2,1.6,5,1.6h26.1c-1.4-2.9-2.2-6-2.2-8.8
		c0-8.1,6.5-14.6,14.6-14.6c8.1,0,14.6,6.5,14.6,14.6c0,2.8-0.8,5.9-2.2,8.8H223c4.7,0,8.6-3.8,8.6-8.6v-26.3c3,1.5,6.4,2.4,9.4,2.4
		c8.1,0,14.6-6.5,14.6-14.6C255.5,196.6,249,190.1,240.9,190.1z"/>
</g>
</svg>
